<svg xmlns="http://www.w3.org/2000/svg" xmlns:xlink="http://www.w3.org/1999/xlink" width="500" zoomAndPan="magnify" viewBox="0 0 375 374.999991" height="500" preserveAspectRatio="xMidYMid meet" version="1.0"><defs><g/></defs><path fill="#b43052" d="M 18.691406 55.992188 C 18.335938 54.453125 19.191406 52.878906 20.6875 52.363281 L 25.453125 50.683594 L 24.597656 48.265625 C 22.601562 42.613281 25.578125 36.382812 31.230469 34.386719 C 36.886719 32.394531 43.117188 35.371094 45.113281 41.023438 L 45.96875 43.4375 L 50.734375 41.757812 C 52.230469 41.226562 53.882812 41.910156 54.566406 43.328125 L 65.59375 66.011719 L 68.585938 28.71875 C 68.757812 26.554688 67.277344 24.605469 65.160156 24.183594 L 58.382812 22.859375 L 59.054688 19.417969 C 60.625 11.347656 55.359375 3.515625 47.292969 1.925781 C 39.222656 0.351562 31.386719 5.617188 29.800781 13.6875 L 29.128906 17.128906 L 22.351562 15.804688 C 20.21875 15.382812 18.117188 16.628906 17.460938 18.703125 L 0.824219 71.273438 C 0.03125 73.78125 1.605469 76.429688 4.191406 76.945312 L 24.425781 80.917969 Z M 57.167969 29.109375 C 56.964844 30.136719 55.96875 30.804688 54.941406 30.601562 C 53.914062 30.402344 53.242188 29.402344 53.445312 28.375 C 53.648438 27.347656 54.644531 26.675781 55.671875 26.878906 C 56.683594 27.082031 57.371094 28.078125 57.167969 29.109375 Z M 33.554688 14.433594 C 34.738281 8.4375 40.5625 4.511719 46.574219 5.679688 C 52.589844 6.847656 56.5 12.6875 55.332031 18.703125 L 54.660156 22.144531 L 32.882812 17.875 Z M 30.15625 21.878906 C 31.183594 22.082031 31.855469 23.078125 31.652344 24.105469 C 31.449219 25.136719 30.453125 25.804688 29.425781 25.601562 C 28.398438 25.398438 27.726562 24.402344 27.929688 23.375 C 28.117188 22.347656 29.113281 21.675781 30.15625 21.878906 Z M 30.15625 21.878906 " fill-opacity="1" fill-rule="nonzero"/><path fill="#b43052" d="M 42.496094 41.941406 C 41.015625 37.738281 36.371094 35.507812 32.152344 37.003906 C 27.945312 38.484375 25.71875 43.128906 27.214844 47.347656 L 28.070312 49.761719 L 43.351562 44.375 Z M 42.496094 41.941406 " fill-opacity="1" fill-rule="nonzero"/><path fill="#b43052" d="M 27.835938 53.300781 C 27.121094 53.546875 26.730469 54.34375 26.996094 55.074219 C 27.246094 55.792969 28.039062 56.179688 28.769531 55.914062 C 29.488281 55.667969 29.878906 54.871094 29.613281 54.140625 C 29.363281 53.421875 28.570312 53.035156 27.835938 53.300781 Z M 27.835938 53.300781 " fill-opacity="1" fill-rule="nonzero"/><path fill="#b43052" d="M 46.667969 49.589844 C 47.386719 49.34375 47.773438 48.546875 47.511719 47.816406 C 47.261719 47.097656 46.464844 46.710938 45.734375 46.972656 C 45.003906 47.238281 44.628906 48.019531 44.894531 48.75 C 45.160156 49.46875 45.953125 49.855469 46.667969 49.589844 Z M 46.667969 49.589844 " fill-opacity="1" fill-rule="nonzero"/><g fill="#2b0711" fill-opacity="1"><g transform="translate(77.734262, 72.863829)"><g><path d="M 18.875 -10.828125 L 42.234375 -10.828125 L 42.234375 0 L 3.859375 0 L 3.859375 -10.046875 L 27.0625 -43.46875 L 3.859375 -43.46875 L 3.859375 -54.296875 L 42.234375 -54.296875 L 42.234375 -44.234375 Z M 18.875 -10.828125 "/></g></g></g><g fill="#2b0711" fill-opacity="1"><g transform="translate(122.280825, 72.863829)"><g><path d="M 45.484375 -22.28125 C 45.484375 -21.039062 45.40625 -19.75 45.25 -18.40625 L 15.3125 -18.40625 C 15.519531 -15.726562 16.382812 -13.675781 17.90625 -12.25 C 19.425781 -10.832031 21.296875 -10.125 23.515625 -10.125 C 26.816406 -10.125 29.109375 -11.519531 30.390625 -14.3125 L 44.46875 -14.3125 C 43.75 -11.46875 42.445312 -8.910156 40.5625 -6.640625 C 38.6875 -4.378906 36.328125 -2.601562 33.484375 -1.3125 C 30.648438 -0.0195312 27.476562 0.625 23.96875 0.625 C 19.75 0.625 15.988281 -0.273438 12.6875 -2.078125 C 9.382812 -3.890625 6.804688 -6.46875 4.953125 -9.8125 C 3.097656 -13.164062 2.171875 -17.085938 2.171875 -21.578125 C 2.171875 -26.066406 3.082031 -29.984375 4.90625 -33.328125 C 6.738281 -36.679688 9.304688 -39.257812 12.609375 -41.0625 C 15.910156 -42.875 19.695312 -43.78125 23.96875 -43.78125 C 28.144531 -43.78125 31.859375 -42.898438 35.109375 -41.140625 C 38.359375 -39.390625 40.898438 -36.890625 42.734375 -33.640625 C 44.566406 -30.390625 45.484375 -26.601562 45.484375 -22.28125 Z M 31.9375 -25.75 C 31.9375 -28.019531 31.160156 -29.828125 29.609375 -31.171875 C 28.066406 -32.515625 26.140625 -33.1875 23.828125 -33.1875 C 21.609375 -33.1875 19.738281 -32.539062 18.21875 -31.25 C 16.695312 -29.957031 15.753906 -28.125 15.390625 -25.75 Z M 31.9375 -25.75 "/></g></g></g><g fill="#2b0711" fill-opacity="1"><g transform="translate(168.374165, 72.863829)"><g><path d="M 18.015625 -37.046875 C 19.304688 -39.054688 21.085938 -40.679688 23.359375 -41.921875 C 25.628906 -43.160156 28.285156 -43.78125 31.328125 -43.78125 C 34.878906 -43.78125 38.097656 -42.875 40.984375 -41.0625 C 43.878906 -39.257812 46.160156 -36.679688 47.828125 -33.328125 C 49.503906 -29.984375 50.34375 -26.09375 50.34375 -21.65625 C 50.34375 -17.21875 49.503906 -13.3125 47.828125 -9.9375 C 46.160156 -6.5625 43.878906 -3.957031 40.984375 -2.125 C 38.097656 -0.289062 34.878906 0.625 31.328125 0.625 C 28.335938 0.625 25.691406 0.00390625 23.390625 -1.234375 C 21.097656 -2.472656 19.304688 -4.070312 18.015625 -6.03125 L 18.015625 20.578125 L 4.796875 20.578125 L 4.796875 -43.15625 L 18.015625 -43.15625 Z M 36.890625 -21.65625 C 36.890625 -24.957031 35.972656 -27.546875 34.140625 -29.421875 C 32.316406 -31.304688 30.0625 -32.25 27.375 -32.25 C 24.75 -32.25 22.519531 -31.296875 20.6875 -29.390625 C 18.851562 -27.484375 17.9375 -24.878906 17.9375 -21.578125 C 17.9375 -18.273438 18.851562 -15.671875 20.6875 -13.765625 C 22.519531 -11.859375 24.75 -10.90625 27.375 -10.90625 C 30.007812 -10.90625 32.253906 -11.867188 34.109375 -13.796875 C 35.960938 -15.734375 36.890625 -18.351562 36.890625 -21.65625 Z M 36.890625 -21.65625 "/></g></g></g><g fill="#2b0711" fill-opacity="1"><g transform="translate(219.339825, 72.863829)"><g><path d="M 31.328125 -43.625 C 36.273438 -43.625 40.242188 -41.984375 43.234375 -38.703125 C 46.222656 -35.429688 47.71875 -30.9375 47.71875 -25.21875 L 47.71875 0 L 34.578125 0 L 34.578125 -23.4375 C 34.578125 -26.320312 33.828125 -28.5625 32.328125 -30.15625 C 30.835938 -31.757812 28.828125 -32.5625 26.296875 -32.5625 C 23.765625 -32.5625 21.75 -31.757812 20.25 -30.15625 C 18.757812 -28.5625 18.015625 -26.320312 18.015625 -23.4375 L 18.015625 0 L 4.796875 0 L 4.796875 -57.234375 L 18.015625 -57.234375 L 18.015625 -37.359375 C 19.359375 -39.265625 21.191406 -40.785156 23.515625 -41.921875 C 25.835938 -43.054688 28.441406 -43.625 31.328125 -43.625 Z M 31.328125 -43.625 "/></g></g></g><g fill="#2b0711" fill-opacity="1"><g transform="translate(269.9188, 72.863829)"><g><path d="M 48.875 -43.15625 L 21.8125 20.5 L 7.578125 20.5 L 17.484375 -1.46875 L -0.078125 -43.15625 L 14.6875 -43.15625 L 24.671875 -16.171875 L 34.578125 -43.15625 Z M 48.875 -43.15625 "/></g></g></g><g fill="#2b0711" fill-opacity="1"><g transform="translate(317.249542, 72.863829)"><g><path d="M 18.015625 -35.96875 C 19.566406 -38.332031 21.5 -40.195312 23.8125 -41.5625 C 26.132812 -42.9375 28.71875 -43.625 31.5625 -43.625 L 31.5625 -29.625 L 27.921875 -29.625 C 24.617188 -29.625 22.140625 -28.914062 20.484375 -27.5 C 18.835938 -26.082031 18.015625 -23.59375 18.015625 -20.03125 L 18.015625 0 L 4.796875 0 L 4.796875 -43.15625 L 18.015625 -43.15625 Z M 18.015625 -35.96875 "/></g></g></g><g fill="#ff9045" fill-opacity="1"><g transform="translate(162.972031, 121.091239)"><g><path d="M 9.453125 -3.234375 L 3.25 -3.234375 L 2.0625 0 L 0.625 0 L 5.59375 -13.453125 L 7.140625 -13.453125 L 12.09375 0 L 10.640625 0 Z M 9.046875 -4.375 L 6.359375 -11.734375 L 3.671875 -4.375 Z M 9.046875 -4.375 "/></g></g></g><g fill="#ff9045" fill-opacity="1"><g transform="translate(176.691485, 121.091239)"><g><path d="M 0.9375 -5.34375 C 0.9375 -6.4375 1.15625 -7.394531 1.59375 -8.21875 C 2.039062 -9.039062 2.648438 -9.675781 3.421875 -10.125 C 4.191406 -10.570312 5.066406 -10.796875 6.046875 -10.796875 C 6.984375 -10.796875 7.828125 -10.566406 8.578125 -10.109375 C 9.335938 -9.660156 9.890625 -9.070312 10.234375 -8.34375 L 10.234375 -14.4375 L 11.609375 -14.4375 L 11.609375 0 L 10.234375 0 L 10.234375 -2.375 C 9.910156 -1.632812 9.378906 -1.023438 8.640625 -0.546875 C 7.898438 -0.078125 7.03125 0.15625 6.03125 0.15625 C 5.050781 0.15625 4.175781 -0.0664062 3.40625 -0.515625 C 2.632812 -0.972656 2.03125 -1.617188 1.59375 -2.453125 C 1.15625 -3.285156 0.9375 -4.25 0.9375 -5.34375 Z M 10.234375 -5.328125 C 10.234375 -6.179688 10.054688 -6.929688 9.703125 -7.578125 C 9.359375 -8.234375 8.882812 -8.734375 8.28125 -9.078125 C 7.675781 -9.429688 7.007812 -9.609375 6.28125 -9.609375 C 5.519531 -9.609375 4.84375 -9.4375 4.25 -9.09375 C 3.65625 -8.757812 3.1875 -8.269531 2.84375 -7.625 C 2.5 -6.988281 2.328125 -6.226562 2.328125 -5.34375 C 2.328125 -4.46875 2.5 -3.703125 2.84375 -3.046875 C 3.1875 -2.390625 3.65625 -1.890625 4.25 -1.546875 C 4.84375 -1.203125 5.519531 -1.03125 6.28125 -1.03125 C 7.007812 -1.03125 7.675781 -1.207031 8.28125 -1.5625 C 8.882812 -1.914062 9.359375 -2.414062 9.703125 -3.0625 C 10.054688 -3.707031 10.234375 -4.460938 10.234375 -5.328125 Z M 10.234375 -5.328125 "/></g></g></g><g fill="#ff9045" fill-opacity="1"><g transform="translate(190.859149, 121.091239)"><g><path d="M 14.234375 -10.84375 C 15.484375 -10.84375 16.5 -10.445312 17.28125 -9.65625 C 18.070312 -8.875 18.46875 -7.734375 18.46875 -6.234375 L 18.46875 0 L 17.125 0 L 17.125 -6.078125 C 17.125 -7.234375 16.84375 -8.117188 16.28125 -8.734375 C 15.71875 -9.347656 14.957031 -9.65625 14 -9.65625 C 13 -9.65625 12.195312 -9.320312 11.59375 -8.65625 C 11 -7.988281 10.703125 -7.023438 10.703125 -5.765625 L 10.703125 0 L 9.359375 0 L 9.359375 -6.078125 C 9.359375 -7.234375 9.078125 -8.117188 8.515625 -8.734375 C 7.960938 -9.347656 7.195312 -9.65625 6.21875 -9.65625 C 5.21875 -9.65625 4.414062 -9.320312 3.8125 -8.65625 C 3.21875 -7.988281 2.921875 -7.023438 2.921875 -5.765625 L 2.921875 0 L 1.5625 0 L 1.5625 -10.640625 L 2.921875 -10.640625 L 2.921875 -8.8125 C 3.265625 -9.476562 3.742188 -9.984375 4.359375 -10.328125 C 4.984375 -10.671875 5.679688 -10.84375 6.453125 -10.84375 C 7.378906 -10.84375 8.1875 -10.617188 8.875 -10.171875 C 9.570312 -9.734375 10.078125 -9.085938 10.390625 -8.234375 C 10.679688 -9.078125 11.171875 -9.722656 11.859375 -10.171875 C 12.554688 -10.617188 13.347656 -10.84375 14.234375 -10.84375 Z M 14.234375 -10.84375 "/></g></g></g><g fill="#ff9045" fill-opacity="1"><g transform="translate(211.788822, 121.091239)"><g><path d="M 2.25 -12.65625 C 1.96875 -12.65625 1.726562 -12.75 1.53125 -12.9375 C 1.34375 -13.132812 1.25 -13.378906 1.25 -13.671875 C 1.25 -13.953125 1.34375 -14.1875 1.53125 -14.375 C 1.726562 -14.5625 1.96875 -14.65625 2.25 -14.65625 C 2.519531 -14.65625 2.75 -14.5625 2.9375 -14.375 C 3.132812 -14.1875 3.234375 -13.953125 3.234375 -13.671875 C 3.234375 -13.378906 3.132812 -13.132812 2.9375 -12.9375 C 2.75 -12.75 2.519531 -12.65625 2.25 -12.65625 Z M 2.921875 -10.640625 L 2.921875 0 L 1.5625 0 L 1.5625 -10.640625 Z M 2.921875 -10.640625 "/></g></g></g><g fill="#ff9045" fill-opacity="1"><g transform="translate(217.265244, 121.091239)"><g><path d="M 6.546875 -10.84375 C 7.828125 -10.84375 8.867188 -10.445312 9.671875 -9.65625 C 10.472656 -8.875 10.875 -7.734375 10.875 -6.234375 L 10.875 0 L 9.53125 0 L 9.53125 -6.078125 C 9.53125 -7.234375 9.238281 -8.117188 8.65625 -8.734375 C 8.082031 -9.347656 7.296875 -9.65625 6.296875 -9.65625 C 5.273438 -9.65625 4.457031 -9.328125 3.84375 -8.671875 C 3.226562 -8.023438 2.921875 -7.070312 2.921875 -5.8125 L 2.921875 0 L 1.5625 0 L 1.5625 -10.640625 L 2.921875 -10.640625 L 2.921875 -8.828125 C 3.265625 -9.484375 3.753906 -9.984375 4.390625 -10.328125 C 5.023438 -10.671875 5.742188 -10.84375 6.546875 -10.84375 Z M 6.546875 -10.84375 "/></g></g></g><g fill="#ff9045" fill-opacity="1"><g transform="translate(230.61445, 121.091239)"><g/></g></g><g fill="#ff9045" fill-opacity="1"><g transform="translate(236.967791, 121.091239)"><g><path d="M 10.28125 -9.71875 C 10.28125 -8.539062 9.894531 -7.59375 9.125 -6.875 C 8.351562 -6.164062 7.203125 -5.8125 5.671875 -5.8125 L 2.921875 -5.8125 L 2.921875 0 L 1.5625 0 L 1.5625 -13.625 L 5.671875 -13.625 C 7.191406 -13.625 8.335938 -13.265625 9.109375 -12.546875 C 9.890625 -11.835938 10.28125 -10.894531 10.28125 -9.71875 Z M 5.671875 -6.984375 C 7.804688 -6.984375 8.875 -7.894531 8.875 -9.71875 C 8.875 -10.625 8.617188 -11.3125 8.109375 -11.78125 C 7.597656 -12.25 6.785156 -12.484375 5.671875 -12.484375 L 2.921875 -12.484375 L 2.921875 -6.984375 Z M 5.671875 -6.984375 "/></g></g></g><g fill="#ff9045" fill-opacity="1"><g transform="translate(248.972391, 121.091239)"><g><path d="M 0.9375 -5.34375 C 0.9375 -6.4375 1.15625 -7.394531 1.59375 -8.21875 C 2.03125 -9.039062 2.632812 -9.675781 3.40625 -10.125 C 4.175781 -10.570312 5.050781 -10.796875 6.03125 -10.796875 C 7.039062 -10.796875 7.910156 -10.5625 8.640625 -10.09375 C 9.378906 -9.632812 9.910156 -9.039062 10.234375 -8.3125 L 10.234375 -10.640625 L 11.609375 -10.640625 L 11.609375 0 L 10.234375 0 L 10.234375 -2.359375 C 9.898438 -1.628906 9.363281 -1.023438 8.625 -0.546875 C 7.894531 -0.078125 7.019531 0.15625 6 0.15625 C 5.039062 0.15625 4.175781 -0.0664062 3.40625 -0.515625 C 2.632812 -0.972656 2.03125 -1.617188 1.59375 -2.453125 C 1.15625 -3.285156 0.9375 -4.25 0.9375 -5.34375 Z M 10.234375 -5.328125 C 10.234375 -6.179688 10.054688 -6.929688 9.703125 -7.578125 C 9.359375 -8.234375 8.882812 -8.734375 8.28125 -9.078125 C 7.675781 -9.429688 7.007812 -9.609375 6.28125 -9.609375 C 5.519531 -9.609375 4.84375 -9.4375 4.25 -9.09375 C 3.65625 -8.757812 3.1875 -8.269531 2.84375 -7.625 C 2.5 -6.988281 2.328125 -6.226562 2.328125 -5.34375 C 2.328125 -4.46875 2.5 -3.703125 2.84375 -3.046875 C 3.1875 -2.390625 3.65625 -1.890625 4.25 -1.546875 C 4.84375 -1.203125 5.519531 -1.03125 6.28125 -1.03125 C 7.007812 -1.03125 7.675781 -1.207031 8.28125 -1.5625 C 8.882812 -1.914062 9.359375 -2.414062 9.703125 -3.0625 C 10.054688 -3.707031 10.234375 -4.460938 10.234375 -5.328125 Z M 10.234375 -5.328125 "/></g></g></g><g fill="#ff9045" fill-opacity="1"><g transform="translate(263.140053, 121.091239)"><g><path d="M 6.546875 -10.84375 C 7.828125 -10.84375 8.867188 -10.445312 9.671875 -9.65625 C 10.472656 -8.875 10.875 -7.734375 10.875 -6.234375 L 10.875 0 L 9.53125 0 L 9.53125 -6.078125 C 9.53125 -7.234375 9.238281 -8.117188 8.65625 -8.734375 C 8.082031 -9.347656 7.296875 -9.65625 6.296875 -9.65625 C 5.273438 -9.65625 4.457031 -9.328125 3.84375 -8.671875 C 3.226562 -8.023438 2.921875 -7.070312 2.921875 -5.8125 L 2.921875 0 L 1.5625 0 L 1.5625 -10.640625 L 2.921875 -10.640625 L 2.921875 -8.828125 C 3.265625 -9.484375 3.753906 -9.984375 4.390625 -10.328125 C 5.023438 -10.671875 5.742188 -10.84375 6.546875 -10.84375 Z M 6.546875 -10.84375 "/></g></g></g><g fill="#ff9045" fill-opacity="1"><g transform="translate(276.489262, 121.091239)"><g><path d="M 11.1875 -5.875 C 11.1875 -5.40625 11.175781 -5.046875 11.15625 -4.796875 L 2.328125 -4.796875 C 2.359375 -3.992188 2.550781 -3.304688 2.90625 -2.734375 C 3.257812 -2.160156 3.71875 -1.726562 4.28125 -1.4375 C 4.851562 -1.144531 5.476562 -1 6.15625 -1 C 7.039062 -1 7.785156 -1.210938 8.390625 -1.640625 C 8.992188 -2.066406 9.394531 -2.644531 9.59375 -3.375 L 11.03125 -3.375 C 10.769531 -2.332031 10.210938 -1.484375 9.359375 -0.828125 C 8.515625 -0.171875 7.445312 0.15625 6.15625 0.15625 C 5.15625 0.15625 4.257812 -0.0664062 3.46875 -0.515625 C 2.675781 -0.960938 2.054688 -1.597656 1.609375 -2.421875 C 1.160156 -3.253906 0.9375 -4.222656 0.9375 -5.328125 C 0.9375 -6.429688 1.15625 -7.398438 1.59375 -8.234375 C 2.039062 -9.066406 2.660156 -9.703125 3.453125 -10.140625 C 4.242188 -10.578125 5.144531 -10.796875 6.15625 -10.796875 C 7.175781 -10.796875 8.066406 -10.578125 8.828125 -10.140625 C 9.585938 -9.703125 10.171875 -9.109375 10.578125 -8.359375 C 10.984375 -7.609375 11.1875 -6.78125 11.1875 -5.875 Z M 9.8125 -5.90625 C 9.820312 -6.695312 9.660156 -7.375 9.328125 -7.9375 C 8.992188 -8.5 8.539062 -8.921875 7.96875 -9.203125 C 7.40625 -9.492188 6.785156 -9.640625 6.109375 -9.640625 C 5.085938 -9.640625 4.21875 -9.3125 3.5 -8.65625 C 2.789062 -8.007812 2.398438 -7.09375 2.328125 -5.90625 Z M 9.8125 -5.90625 "/></g></g></g><g fill="#ff9045" fill-opacity="1"><g transform="translate(289.624114, 121.091239)"><g><path d="M 2.921875 -14.4375 L 2.921875 0 L 1.5625 0 L 1.5625 -14.4375 Z M 2.921875 -14.4375 "/></g></g></g></svg>