<svg xmlns="http://www.w3.org/2000/svg" xmlns:xlink="http://www.w3.org/1999/xlink" width="500" zoomAndPan="magnify" viewBox="0 0 375 374.999991" height="500" preserveAspectRatio="xMidYMid meet" version="1.0"><defs><g/><clipPath id="2d23ec0b47"><path d="M 57 96 L 168.761719 96 L 168.761719 227 L 57 227 Z M 57 96 " clip-rule="nonzero"/></clipPath></defs><g clip-path="url(#2d23ec0b47)"><path fill="#b43052" d="M 86.921875 185.898438 C 86.335938 183.371094 87.738281 180.789062 90.191406 179.945312 L 98.011719 177.1875 L 96.605469 173.226562 C 93.335938 163.953125 98.214844 153.730469 107.488281 150.460938 C 116.765625 147.191406 126.984375 152.070312 130.253906 161.34375 L 131.660156 165.304688 L 139.480469 162.546875 C 141.933594 161.675781 144.640625 162.800781 145.765625 165.125 L 163.855469 202.328125 L 168.757812 141.160156 C 169.039062 137.609375 166.613281 134.414062 163.136719 133.726562 L 152.023438 131.554688 L 153.121094 125.90625 C 155.703125 112.671875 147.066406 99.820312 133.832031 97.214844 C 120.597656 94.632812 107.746094 103.269531 105.140625 116.503906 L 104.039062 122.152344 L 92.925781 119.980469 C 89.425781 119.289062 85.976562 121.335938 84.902344 124.730469 L 57.617188 210.964844 C 56.3125 215.078125 58.894531 219.421875 63.136719 220.265625 L 96.324219 226.777344 Z M 150.03125 141.800781 C 149.699219 143.484375 148.0625 144.585938 146.378906 144.253906 C 144.691406 143.921875 143.59375 142.285156 143.925781 140.597656 C 144.257812 138.914062 145.890625 137.8125 147.578125 138.144531 C 149.238281 138.476562 150.363281 140.113281 150.03125 141.800781 Z M 111.296875 117.730469 C 113.238281 107.894531 122.792969 101.457031 132.65625 103.371094 C 142.519531 105.289062 148.933594 114.871094 147.015625 124.730469 L 145.917969 130.378906 L 110.199219 123.378906 Z M 105.726562 129.945312 C 107.414062 130.277344 108.511719 131.910156 108.179688 133.597656 C 107.847656 135.285156 106.210938 136.382812 104.527344 136.050781 C 102.839844 135.71875 101.742188 134.082031 102.074219 132.398438 C 102.378906 130.710938 104.015625 129.613281 105.726562 129.945312 Z M 105.726562 129.945312 " fill-opacity="1" fill-rule="nonzero"/></g><path fill="#b43052" d="M 125.964844 162.851562 C 123.535156 155.953125 115.921875 152.300781 108.996094 154.753906 C 102.097656 157.179688 98.445312 164.792969 100.898438 171.71875 L 102.304688 175.679688 L 127.367188 166.839844 Z M 125.964844 162.851562 " fill-opacity="1" fill-rule="nonzero"/><path fill="#b43052" d="M 101.921875 181.480469 C 100.746094 181.886719 100.105469 183.191406 100.539062 184.390625 C 100.949219 185.566406 102.253906 186.207031 103.453125 185.769531 C 104.628906 185.363281 105.265625 184.058594 104.832031 182.859375 C 104.425781 181.683594 103.121094 181.042969 101.921875 181.480469 Z M 101.921875 181.480469 " fill-opacity="1" fill-rule="nonzero"/><path fill="#b43052" d="M 132.808594 175.398438 C 133.984375 174.988281 134.625 173.6875 134.191406 172.484375 C 133.78125 171.308594 132.476562 170.671875 131.277344 171.105469 C 130.078125 171.539062 129.464844 172.816406 129.898438 174.019531 C 130.332031 175.195312 131.636719 175.832031 132.808594 175.398438 Z M 132.808594 175.398438 " fill-opacity="1" fill-rule="nonzero"/><g fill="#2b0711" fill-opacity="1"><g transform="translate(119.856589, 269.302278)"><g><path d="M 16.6875 -9.578125 L 37.328125 -9.578125 L 37.328125 0 L 3.421875 0 L 3.421875 -8.890625 L 23.9375 -38.421875 L 3.421875 -38.421875 L 3.421875 -48 L 37.328125 -48 L 37.328125 -39.109375 Z M 16.6875 -9.578125 "/></g></g></g><g fill="#2b0711" fill-opacity="1"><g transform="translate(159.235748, 269.302278)"><g><path d="M 40.203125 -19.6875 C 40.203125 -18.59375 40.132812 -17.453125 40 -16.265625 L 13.53125 -16.265625 C 13.71875 -13.898438 14.484375 -12.085938 15.828125 -10.828125 C 17.171875 -9.578125 18.820312 -8.953125 20.78125 -8.953125 C 23.695312 -8.953125 25.726562 -10.1875 26.875 -12.65625 L 39.3125 -12.65625 C 38.675781 -10.144531 37.523438 -7.882812 35.859375 -5.875 C 34.191406 -3.875 32.101562 -2.300781 29.59375 -1.15625 C 27.09375 -0.0195312 24.296875 0.546875 21.203125 0.546875 C 17.460938 0.546875 14.132812 -0.25 11.21875 -1.84375 C 8.300781 -3.4375 6.019531 -5.710938 4.375 -8.671875 C 2.738281 -11.640625 1.921875 -15.109375 1.921875 -19.078125 C 1.921875 -23.046875 2.726562 -26.507812 4.34375 -29.46875 C 5.957031 -32.425781 8.222656 -34.703125 11.140625 -36.296875 C 14.054688 -37.898438 17.410156 -38.703125 21.203125 -38.703125 C 24.890625 -38.703125 28.164062 -37.925781 31.03125 -36.375 C 33.90625 -34.820312 36.148438 -32.609375 37.765625 -29.734375 C 39.390625 -26.867188 40.203125 -23.519531 40.203125 -19.6875 Z M 28.234375 -22.765625 C 28.234375 -24.773438 27.550781 -26.367188 26.1875 -27.546875 C 24.820312 -28.734375 23.113281 -29.328125 21.0625 -29.328125 C 19.101562 -29.328125 17.445312 -28.757812 16.09375 -27.625 C 14.75 -26.488281 13.921875 -24.867188 13.609375 -22.765625 Z M 28.234375 -22.765625 "/></g></g></g><g fill="#2b0711" fill-opacity="1"><g transform="translate(199.98226, 269.302278)"><g><path d="M 15.9375 -32.75 C 17.070312 -34.53125 18.640625 -35.96875 20.640625 -37.0625 C 22.648438 -38.15625 25 -38.703125 27.6875 -38.703125 C 30.832031 -38.703125 33.679688 -37.898438 36.234375 -36.296875 C 38.785156 -34.703125 40.800781 -32.425781 42.28125 -29.46875 C 43.769531 -26.507812 44.515625 -23.066406 44.515625 -19.140625 C 44.515625 -15.222656 43.769531 -11.769531 42.28125 -8.78125 C 40.800781 -5.800781 38.785156 -3.5 36.234375 -1.875 C 33.679688 -0.257812 30.832031 0.546875 27.6875 0.546875 C 25.039062 0.546875 22.703125 0 20.671875 -1.09375 C 18.648438 -2.1875 17.070312 -3.597656 15.9375 -5.328125 L 15.9375 18.1875 L 4.234375 18.1875 L 4.234375 -38.15625 L 15.9375 -38.15625 Z M 32.609375 -19.140625 C 32.609375 -22.054688 31.800781 -24.347656 30.1875 -26.015625 C 28.570312 -27.679688 26.578125 -28.515625 24.203125 -28.515625 C 21.878906 -28.515625 19.90625 -27.671875 18.28125 -25.984375 C 16.664062 -24.296875 15.859375 -21.992188 15.859375 -19.078125 C 15.859375 -16.160156 16.664062 -13.859375 18.28125 -12.171875 C 19.90625 -10.484375 21.878906 -9.640625 24.203125 -9.640625 C 26.523438 -9.640625 28.503906 -10.492188 30.140625 -12.203125 C 31.785156 -13.910156 32.609375 -16.222656 32.609375 -19.140625 Z M 32.609375 -19.140625 "/></g></g></g><g fill="#2b0711" fill-opacity="1"><g transform="translate(245.035902, 269.302278)"><g><path d="M 27.6875 -38.5625 C 32.0625 -38.5625 35.570312 -37.113281 38.21875 -34.21875 C 40.863281 -31.320312 42.1875 -27.347656 42.1875 -22.296875 L 42.1875 0 L 30.5625 0 L 30.5625 -20.71875 C 30.5625 -23.269531 29.898438 -25.25 28.578125 -26.65625 C 27.253906 -28.070312 25.476562 -28.78125 23.25 -28.78125 C 21.007812 -28.78125 19.226562 -28.070312 17.90625 -26.65625 C 16.59375 -25.25 15.9375 -23.269531 15.9375 -20.71875 L 15.9375 0 L 4.234375 0 L 4.234375 -50.59375 L 15.9375 -50.59375 L 15.9375 -33.03125 C 17.113281 -34.71875 18.726562 -36.0625 20.78125 -37.0625 C 22.832031 -38.0625 25.132812 -38.5625 27.6875 -38.5625 Z M 27.6875 -38.5625 "/></g></g></g><g fill="#2b0711" fill-opacity="1"><g transform="translate(289.747714, 269.302278)"><g><path d="M 43.21875 -38.15625 L 19.28125 18.125 L 6.703125 18.125 L 15.453125 -1.296875 L -0.0625 -38.15625 L 12.984375 -38.15625 L 21.8125 -14.296875 L 30.5625 -38.15625 Z M 43.21875 -38.15625 "/></g></g></g><g fill="#2b0711" fill-opacity="1"><g transform="translate(331.588088, 269.302278)"><g><path d="M 15.9375 -31.796875 C 17.300781 -33.890625 19.007812 -35.539062 21.0625 -36.75 C 23.113281 -37.957031 25.390625 -38.5625 27.890625 -38.5625 L 27.890625 -26.1875 L 24.6875 -26.1875 C 21.769531 -26.1875 19.582031 -25.554688 18.125 -24.296875 C 16.664062 -23.046875 15.9375 -20.847656 15.9375 -17.703125 L 15.9375 0 L 4.234375 0 L 4.234375 -38.15625 L 15.9375 -38.15625 Z M 15.9375 -31.796875 "/></g></g></g><g fill="#ff9045" fill-opacity="1"><g transform="translate(170.727665, 213.117041)"><g><path d="M 4.59375 0.140625 C 6.328125 0.140625 7.5625 0.046875 8.1875 -0.03125 C 8.46875 -0.046875 8.65625 -0.1875 8.71875 -0.53125 C 8.765625 -0.8125 8.640625 -0.96875 8.34375 -0.953125 C 7.828125 -0.90625 6.53125 -0.8125 4.859375 -0.8125 C 4.6875 -0.8125 4.53125 -0.8125 4.375 -0.8125 C 3.34375 -0.8125 2.703125 -0.859375 2.28125 -0.90625 C 2.375 -2.140625 2.53125 -3.453125 2.765625 -4.828125 C 3.421875 -4.84375 4.09375 -4.84375 4.75 -4.84375 C 5.5625 -4.84375 6.359375 -4.84375 7.078125 -4.8125 C 7.421875 -4.796875 7.625 -5.0625 7.625 -5.390625 C 7.625 -5.609375 7.5 -5.71875 7.234375 -5.734375 C 6.453125 -5.765625 5.6875 -5.765625 4.90625 -5.765625 C 4.25 -5.765625 3.609375 -5.765625 2.9375 -5.75 C 3.1875 -7.015625 3.453125 -8.15625 3.796875 -9.34375 C 3.828125 -9.515625 3.78125 -9.625 3.671875 -9.6875 C 4.46875 -9.765625 5.3125 -9.796875 6.125 -9.796875 C 7.578125 -9.796875 8.875 -9.71875 10.0625 -9.625 C 10.4375 -9.609375 10.546875 -9.78125 10.625 -10.078125 C 10.640625 -10.15625 10.65625 -10.21875 10.65625 -10.28125 C 10.65625 -10.453125 10.5625 -10.546875 10.359375 -10.5625 C 9.28125 -10.671875 7.953125 -10.71875 6.40625 -10.71875 C 4.9375 -10.71875 3.390625 -10.625 2.203125 -10.421875 C 1.84375 -10.390625 1.734375 -10.1875 1.734375 -9.828125 C 1.734375 -9.5625 1.84375 -9.453125 2.140625 -9.46875 C 2.375 -9.515625 2.640625 -9.5625 2.875 -9.59375 C 2.828125 -9.53125 2.78125 -9.453125 2.765625 -9.375 C 2.359375 -8.09375 2.0625 -6.609375 1.8125 -5.234375 C 1.515625 -3.625 1.328125 -1.96875 1.203125 -0.40625 C 1.203125 -0.234375 1.34375 -0.046875 1.609375 0 C 1.90625 0.0625 2.90625 0.140625 4.59375 0.140625 Z M 4.59375 0.140625 "/></g></g></g><g fill="#ff9045" fill-opacity="1"><g transform="translate(180.363578, 213.117041)"><g><path d="M 1.28125 0.15625 C 1.6875 0.15625 1.890625 0.03125 1.921875 -0.359375 C 2.03125 -1.8125 2.1875 -3.15625 2.609375 -5.1875 C 3.15625 -7.921875 3.625 -9.734375 3.984375 -11.140625 C 4 -11.203125 4 -11.25 4 -11.28125 C 4 -11.484375 3.875 -11.5625 3.546875 -11.5625 C 3.25 -11.5625 3.125 -11.453125 3.03125 -11.1875 C 2.65625 -9.859375 2.1875 -8.0625 1.609375 -5.1875 C 1.25 -3.359375 1.0625 -1.84375 0.921875 -0.28125 C 0.90625 -0.21875 0.90625 -0.171875 0.90625 -0.125 C 0.90625 0.078125 1.015625 0.15625 1.28125 0.15625 Z M 1.28125 0.15625 "/></g></g></g><g fill="#ff9045" fill-opacity="1"><g transform="translate(184.351901, 213.117041)"><g><path d="M 3.875 0.15625 C 5.171875 0.15625 6.015625 -0.171875 6.875 -0.640625 C 7.0625 -0.75 7.1875 -0.875 7.1875 -1.046875 C 7.1875 -1.109375 7.171875 -1.171875 7.15625 -1.234375 C 7.09375 -1.421875 7 -1.5 6.890625 -1.5 C 6.828125 -1.5 6.75 -1.46875 6.6875 -1.4375 C 5.859375 -0.96875 5.296875 -0.734375 4.265625 -0.734375 C 2.65625 -0.734375 1.796875 -1.515625 1.796875 -2.9375 C 1.796875 -3.21875 1.828125 -3.5 1.890625 -3.828125 C 2.578125 -3.203125 3.5 -2.8125 4.8125 -2.8125 C 6.6875 -2.8125 7.90625 -3.75 8.203125 -5.1875 C 8.234375 -5.359375 8.25 -5.53125 8.25 -5.71875 C 8.25 -6.90625 7.34375 -7.765625 5.40625 -7.765625 C 2.9375 -7.765625 1.359375 -6.109375 0.90625 -3.828125 C 0.828125 -3.40625 0.78125 -3.03125 0.78125 -2.6875 C 0.78125 -0.90625 1.8125 0.15625 3.875 0.15625 Z M 2.15625 -4.703125 C 2.703125 -6.03125 3.828125 -6.90625 5.28125 -6.90625 C 6.65625 -6.90625 7.234375 -6.296875 7.234375 -5.5 C 7.234375 -4.46875 6.359375 -3.703125 4.796875 -3.703125 C 3.609375 -3.703125 2.796875 -4.09375 2.15625 -4.703125 Z M 2.15625 -4.703125 "/></g></g></g><g fill="#ff9045" fill-opacity="1"><g transform="translate(193.150564, 213.117041)"><g><path d="M 3.234375 0.15625 C 3.421875 0.15625 3.640625 0.09375 3.84375 -0.015625 C 6.359375 -1.71875 8.078125 -4.265625 8.84375 -7.40625 C 8.890625 -7.625 8.8125 -7.765625 8.4375 -7.765625 C 8.109375 -7.765625 7.921875 -7.640625 7.875 -7.4375 C 7.140625 -4.59375 5.546875 -2.28125 3.4375 -0.765625 C 2.625 -1.859375 2.140625 -3.34375 2.140625 -5.0625 C 2.140625 -5.796875 2.234375 -6.59375 2.421875 -7.4375 C 2.46875 -7.65625 2.28125 -7.765625 1.984375 -7.765625 C 1.65625 -7.765625 1.484375 -7.65625 1.421875 -7.40625 C 1.21875 -6.46875 1.109375 -5.578125 1.109375 -4.75 C 1.109375 -2.875 1.625 -1.28125 2.703125 -0.046875 C 2.8125 0.09375 3 0.15625 3.234375 0.15625 Z M 3.234375 0.15625 "/></g></g></g><g fill="#ff9045" fill-opacity="1"><g transform="translate(201.97968, 213.117041)"><g><path d="M 3.40625 0.15625 C 4.90625 0.15625 6.109375 -0.609375 7.046875 -2.125 C 7.015625 -1.765625 6.984375 -1.5 6.984375 -1.25 C 6.984375 -0.796875 7.0625 -0.453125 7.234375 -0.078125 C 7.265625 0.046875 7.390625 0.140625 7.5625 0.140625 C 7.625 0.140625 7.71875 0.125 7.8125 0.078125 C 8.125 -0.03125 8.234375 -0.1875 8.234375 -0.375 C 8.234375 -0.421875 8.234375 -0.484375 8.21875 -0.53125 C 8.078125 -0.828125 8.015625 -1.140625 8.015625 -1.546875 C 8.015625 -2.140625 8.15625 -2.921875 8.359375 -4 C 8.5625 -5.046875 9.03125 -7.21875 9.046875 -7.328125 C 9.109375 -7.625 8.9375 -7.734375 8.640625 -7.734375 C 8.3125 -7.734375 8.0625 -7.640625 7.96875 -7.1875 L 7.8125 -6.421875 C 7.46875 -7.09375 6.6875 -7.734375 5.375 -7.734375 C 2.859375 -7.734375 1.34375 -6 0.90625 -3.796875 C 0.8125 -3.359375 0.765625 -2.921875 0.765625 -2.546875 C 0.765625 -0.859375 1.640625 0.15625 3.40625 0.15625 Z M 1.875 -3.765625 C 2.234375 -5.546875 3.40625 -6.859375 5.328125 -6.859375 C 6.796875 -6.859375 7.515625 -5.890625 7.515625 -4.90625 C 7.515625 -4.765625 7.515625 -4.625 7.484375 -4.515625 L 7.484375 -4.46875 C 6.40625 -1.71875 5.296875 -0.75 3.734375 -0.75 C 2.453125 -0.75 1.78125 -1.53125 1.78125 -2.828125 C 1.78125 -3.125 1.8125 -3.421875 1.875 -3.765625 Z M 1.875 -3.765625 "/></g></g></g><g fill="#ff9045" fill-opacity="1"><g transform="translate(211.783044, 213.117041)"><g><path d="M 3.296875 0.15625 C 4.0625 0.15625 4.625 0.015625 5.34375 -0.546875 C 5.5625 -0.640625 5.65625 -0.796875 5.65625 -0.96875 C 5.65625 -1.015625 5.65625 -1.0625 5.640625 -1.109375 C 5.546875 -1.296875 5.4375 -1.375 5.328125 -1.375 C 5.28125 -1.375 5.234375 -1.359375 5.1875 -1.34375 C 4.515625 -0.828125 4.078125 -0.75 3.609375 -0.75 C 2.84375 -0.75 2.265625 -1.171875 2.265625 -2.046875 C 2.265625 -2.1875 2.28125 -2.359375 2.3125 -2.53125 C 2.5625 -3.734375 2.890625 -5.21875 3.234375 -6.71875 L 5.96875 -6.703125 C 6.28125 -6.703125 6.40625 -6.859375 6.46875 -7.15625 C 6.484375 -7.203125 6.484375 -7.265625 6.484375 -7.296875 C 6.484375 -7.5 6.390625 -7.59375 6.140625 -7.59375 C 5.3125 -7.59375 4.375 -7.609375 3.4375 -7.609375 C 3.609375 -8.296875 3.78125 -8.96875 3.9375 -9.59375 C 3.953125 -9.65625 3.953125 -9.71875 3.953125 -9.765625 C 3.953125 -9.96875 3.8125 -10.046875 3.46875 -10.046875 C 3.203125 -10.046875 3.03125 -9.984375 2.953125 -9.703125 C 2.796875 -9.046875 2.625 -8.328125 2.453125 -7.625 L 1.40625 -7.625 C 1.03125 -7.625 0.890625 -7.5 0.828125 -7.171875 C 0.8125 -7.109375 0.8125 -7.0625 0.8125 -7.015625 C 0.8125 -6.8125 0.921875 -6.71875 1.1875 -6.71875 L 2.234375 -6.71875 C 1.890625 -5.171875 1.546875 -3.640625 1.3125 -2.453125 C 1.265625 -2.1875 1.234375 -1.953125 1.234375 -1.71875 C 1.234375 -0.453125 2.046875 0.15625 3.296875 0.15625 Z M 3.296875 0.15625 "/></g></g></g><g fill="#ff9045" fill-opacity="1"><g transform="translate(218.161316, 213.117041)"><g><path d="M 3.875 0.15625 C 5.171875 0.15625 6.015625 -0.171875 6.875 -0.640625 C 7.0625 -0.75 7.1875 -0.875 7.1875 -1.046875 C 7.1875 -1.109375 7.171875 -1.171875 7.15625 -1.234375 C 7.09375 -1.421875 7 -1.5 6.890625 -1.5 C 6.828125 -1.5 6.75 -1.46875 6.6875 -1.4375 C 5.859375 -0.96875 5.296875 -0.734375 4.265625 -0.734375 C 2.65625 -0.734375 1.796875 -1.515625 1.796875 -2.9375 C 1.796875 -3.21875 1.828125 -3.5 1.890625 -3.828125 C 2.578125 -3.203125 3.5 -2.8125 4.8125 -2.8125 C 6.6875 -2.8125 7.90625 -3.75 8.203125 -5.1875 C 8.234375 -5.359375 8.25 -5.53125 8.25 -5.71875 C 8.25 -6.90625 7.34375 -7.765625 5.40625 -7.765625 C 2.9375 -7.765625 1.359375 -6.109375 0.90625 -3.828125 C 0.828125 -3.40625 0.78125 -3.03125 0.78125 -2.6875 C 0.78125 -0.90625 1.8125 0.15625 3.875 0.15625 Z M 2.15625 -4.703125 C 2.703125 -6.03125 3.828125 -6.90625 5.28125 -6.90625 C 6.65625 -6.90625 7.234375 -6.296875 7.234375 -5.5 C 7.234375 -4.46875 6.359375 -3.703125 4.796875 -3.703125 C 3.609375 -3.703125 2.796875 -4.09375 2.15625 -4.703125 Z M 2.15625 -4.703125 "/></g></g></g><g fill="#ff9045" fill-opacity="1"><g transform="translate(226.95998, 213.117041)"><g/></g></g><g fill="#ff9045" fill-opacity="1"><g transform="translate(231.374538, 213.117041)"><g><path d="M 3.34375 3.96875 C 5.40625 3.96875 7.171875 2.953125 7.765625 0.453125 C 8.09375 -0.921875 9.1875 -5.875 9.53125 -7.390625 C 9.578125 -7.671875 9.46875 -7.765625 9.171875 -7.765625 C 8.78125 -7.765625 8.625 -7.671875 8.5625 -7.421875 C 8.421875 -6.859375 8.203125 -5.765625 7.90625 -4.5625 C 7.125 -1.640625 5.703125 -0.75 4.234375 -0.75 C 2.953125 -0.75 2.40625 -1.359375 2.40625 -2.5 C 2.40625 -2.78125 2.4375 -3.125 2.515625 -3.484375 C 2.734375 -4.59375 3.203125 -6.140625 3.625 -7.28125 C 3.65625 -7.34375 3.65625 -7.40625 3.65625 -7.453125 C 3.65625 -7.59375 3.5625 -7.671875 3.328125 -7.734375 C 3.265625 -7.75 3.203125 -7.765625 3.140625 -7.765625 C 2.9375 -7.765625 2.765625 -7.65625 2.703125 -7.484375 C 2.1875 -6.203125 1.78125 -4.734375 1.515625 -3.328125 C 1.421875 -2.890625 1.375 -2.5 1.375 -2.140625 C 1.375 -0.703125 2.125 0.15625 3.859375 0.15625 C 5.046875 0.15625 6.328125 -0.359375 7.28125 -1.796875 L 6.828125 0.328125 C 6.390625 2.34375 4.90625 3.0625 3.421875 3.0625 C 2.1875 3.0625 1.53125 2.78125 0.75 2.265625 C 0.6875 2.203125 0.609375 2.1875 0.53125 2.1875 C 0.40625 2.1875 0.265625 2.28125 0.09375 2.5 C 0.015625 2.609375 -0.03125 2.71875 -0.03125 2.796875 C -0.03125 2.90625 0.03125 3 0.15625 3.078125 C 0.9375 3.59375 1.765625 3.96875 3.34375 3.96875 Z M 3.34375 3.96875 "/></g></g></g><g fill="#ff9045" fill-opacity="1"><g transform="translate(241.543242, 213.117041)"><g><path d="M 3.828125 0.15625 C 6.390625 0.15625 7.953125 -1.296875 8.375 -3.4375 C 8.4375 -3.71875 8.453125 -3.984375 8.453125 -4.265625 C 8.453125 -4.890625 8.3125 -5.46875 8.0625 -5.875 L 8.1875 -5.96875 C 8.34375 -6.09375 8.421875 -6.25 8.421875 -6.375 C 8.421875 -6.4375 8.40625 -6.5 8.359375 -6.546875 C 7.8125 -7.34375 6.859375 -7.765625 5.453125 -7.765625 C 3.125 -7.765625 1.359375 -6.0625 0.921875 -3.9375 C 0.84375 -3.453125 0.78125 -3.015625 0.78125 -2.609375 C 0.78125 -0.859375 1.71875 0.15625 3.828125 0.15625 Z M 1.90625 -3.90625 C 2.234375 -5.59375 3.609375 -6.875 5.25 -6.875 C 6.234375 -6.875 6.875 -6.59375 7.296875 -6.21875 L 7.1875 -6.140625 C 7.015625 -5.984375 6.9375 -5.84375 6.9375 -5.734375 C 6.9375 -5.65625 6.96875 -5.578125 7.03125 -5.515625 C 7.3125 -5.171875 7.453125 -4.640625 7.453125 -4.09375 C 7.453125 -3.875 7.4375 -3.625 7.390625 -3.390625 C 7.0625 -1.84375 6 -0.75 4.078125 -0.75 C 2.5 -0.75 1.796875 -1.515625 1.796875 -2.859375 C 1.796875 -3.1875 1.828125 -3.515625 1.90625 -3.90625 Z M 1.90625 -3.90625 "/></g></g></g><g fill="#ff9045" fill-opacity="1"><g transform="translate(250.874697, 213.117041)"><g><path d="M 3.609375 0.15625 C 5.109375 0.15625 6.40625 -0.65625 7.25 -2.15625 C 7.21875 -1.828125 7.1875 -1.484375 7.1875 -1.125 C 7.1875 -0.796875 7.21875 -0.453125 7.265625 -0.109375 C 7.328125 0.078125 7.421875 0.140625 7.578125 0.140625 C 7.640625 0.140625 7.75 0.125 7.890625 0.078125 C 8.171875 -0.03125 8.3125 -0.203125 8.25 -0.46875 C 8.21875 -0.78125 8.203125 -1.078125 8.203125 -1.390625 C 8.203125 -2.03125 8.28125 -2.734375 8.5 -3.796875 C 8.828125 -5.4375 9.046875 -6.25 9.28125 -7.40625 C 9.328125 -7.65625 9.21875 -7.765625 8.90625 -7.765625 C 8.5 -7.765625 8.359375 -7.65625 8.3125 -7.4375 C 8.234375 -7.09375 7.90625 -5.671875 7.75 -4.984375 C 7.015625 -1.734375 5.5 -0.75 3.96875 -0.75 C 2.71875 -0.75 2.15625 -1.359375 2.15625 -2.5 C 2.15625 -2.796875 2.1875 -3.140625 2.265625 -3.5 C 2.5 -4.625 2.9375 -6.171875 3.359375 -7.296875 C 3.375 -7.359375 3.390625 -7.40625 3.390625 -7.453125 C 3.390625 -7.609375 3.3125 -7.6875 3.0625 -7.75 C 3 -7.765625 2.9375 -7.765625 2.890625 -7.765625 C 2.6875 -7.765625 2.5 -7.671875 2.421875 -7.484375 C 1.9375 -6.203125 1.53125 -4.765625 1.265625 -3.421875 C 1.171875 -2.96875 1.125 -2.5625 1.125 -2.171875 C 1.125 -0.6875 1.875 0.15625 3.609375 0.15625 Z M 3.609375 0.15625 "/></g></g></g><g fill="#ff9045" fill-opacity="1"><g transform="translate(261.134736, 213.117041)"><g><path d="M 1.109375 0.15625 C 1.484375 0.15625 1.65625 0.015625 1.703125 -0.25 C 1.875 -1.3125 2.25 -3.453125 2.359375 -3.96875 C 2.84375 -6.390625 4.359375 -6.859375 5.171875 -6.859375 C 5.734375 -6.859375 6.171875 -6.734375 6.484375 -6.5 C 6.53125 -6.46875 6.59375 -6.4375 6.65625 -6.4375 C 6.796875 -6.4375 6.953125 -6.53125 7.046875 -6.671875 C 7.171875 -6.828125 7.25 -6.96875 7.25 -7.0625 C 7.25 -7.140625 7.21875 -7.203125 7.15625 -7.265625 C 6.796875 -7.59375 6.28125 -7.75 5.515625 -7.75 C 4.671875 -7.75 3.59375 -7.34375 2.84375 -6.3125 C 2.921875 -6.609375 3.015625 -6.9375 3.125 -7.328125 C 3.140625 -7.390625 3.15625 -7.4375 3.15625 -7.484375 C 3.15625 -7.65625 3.03125 -7.765625 2.6875 -7.765625 C 2.390625 -7.765625 2.21875 -7.640625 2.140625 -7.328125 C 1.875 -6.265625 1.75 -5.875 1.46875 -4.390625 C 1.109375 -2.671875 0.90625 -1.390625 0.703125 -0.265625 C 0.671875 -0.03125 0.703125 0.15625 1.109375 0.15625 Z M 1.109375 0.15625 "/></g></g></g><g fill="#ff9045" fill-opacity="1"><g transform="translate(268.228471, 213.117041)"><g/></g></g><g fill="#ff9045" fill-opacity="1"><g transform="translate(272.643029, 213.117041)"><g><path d="M 2.9375 0.15625 C 5.328125 0.15625 6.421875 -0.65625 6.6875 -2.015625 C 6.734375 -2.203125 6.75 -2.40625 6.75 -2.59375 C 6.75 -3.390625 6.265625 -4.03125 4.5625 -4.265625 C 3.25 -4.421875 2.578125 -4.703125 2.578125 -5.40625 C 2.578125 -5.484375 2.59375 -5.578125 2.609375 -5.671875 C 2.765625 -6.484375 3.453125 -6.890625 4.546875 -6.890625 C 5.5 -6.890625 6.25 -6.65625 6.703125 -6.265625 C 6.765625 -6.21875 6.828125 -6.1875 6.90625 -6.1875 C 7.03125 -6.1875 7.171875 -6.265625 7.328125 -6.4375 C 7.4375 -6.5625 7.5 -6.6875 7.5 -6.78125 C 7.5 -6.875 7.453125 -6.953125 7.375 -7.015625 C 6.828125 -7.4375 6.046875 -7.765625 4.703125 -7.765625 C 3 -7.765625 1.90625 -7.0625 1.609375 -5.65625 C 1.578125 -5.46875 1.546875 -5.296875 1.546875 -5.15625 C 1.546875 -4.078125 2.4375 -3.609375 4.046875 -3.40625 C 5.421875 -3.234375 5.75 -2.765625 5.75 -2.28125 C 5.75 -2.203125 5.734375 -2.125 5.71875 -2.03125 C 5.53125 -1.125 4.828125 -0.71875 3.21875 -0.71875 C 2.28125 -0.71875 1.6875 -0.90625 0.9375 -1.234375 C 0.890625 -1.265625 0.828125 -1.28125 0.78125 -1.28125 C 0.625 -1.28125 0.46875 -1.1875 0.3125 -0.9375 C 0.265625 -0.828125 0.234375 -0.734375 0.234375 -0.640625 C 0.234375 -0.515625 0.296875 -0.4375 0.390625 -0.375 C 1.09375 -0.046875 1.796875 0.15625 2.9375 0.15625 Z M 2.9375 0.15625 "/></g></g></g><g fill="#ff9045" fill-opacity="1"><g transform="translate(280.634895, 213.117041)"><g><path d="M 3.296875 0.15625 C 4.0625 0.15625 4.625 0.015625 5.34375 -0.546875 C 5.5625 -0.640625 5.65625 -0.796875 5.65625 -0.96875 C 5.65625 -1.015625 5.65625 -1.0625 5.640625 -1.109375 C 5.546875 -1.296875 5.4375 -1.375 5.328125 -1.375 C 5.28125 -1.375 5.234375 -1.359375 5.1875 -1.34375 C 4.515625 -0.828125 4.078125 -0.75 3.609375 -0.75 C 2.84375 -0.75 2.265625 -1.171875 2.265625 -2.046875 C 2.265625 -2.1875 2.28125 -2.359375 2.3125 -2.53125 C 2.5625 -3.734375 2.890625 -5.21875 3.234375 -6.71875 L 5.96875 -6.703125 C 6.28125 -6.703125 6.40625 -6.859375 6.46875 -7.15625 C 6.484375 -7.203125 6.484375 -7.265625 6.484375 -7.296875 C 6.484375 -7.5 6.390625 -7.59375 6.140625 -7.59375 C 5.3125 -7.59375 4.375 -7.609375 3.4375 -7.609375 C 3.609375 -8.296875 3.78125 -8.96875 3.9375 -9.59375 C 3.953125 -9.65625 3.953125 -9.71875 3.953125 -9.765625 C 3.953125 -9.96875 3.8125 -10.046875 3.46875 -10.046875 C 3.203125 -10.046875 3.03125 -9.984375 2.953125 -9.703125 C 2.796875 -9.046875 2.625 -8.328125 2.453125 -7.625 L 1.40625 -7.625 C 1.03125 -7.625 0.890625 -7.5 0.828125 -7.171875 C 0.8125 -7.109375 0.8125 -7.0625 0.8125 -7.015625 C 0.8125 -6.8125 0.921875 -6.71875 1.1875 -6.71875 L 2.234375 -6.71875 C 1.890625 -5.171875 1.546875 -3.640625 1.3125 -2.453125 C 1.265625 -2.1875 1.234375 -1.953125 1.234375 -1.71875 C 1.234375 -0.453125 2.046875 0.15625 3.296875 0.15625 Z M 3.296875 0.15625 "/></g></g></g><g fill="#ff9045" fill-opacity="1"><g transform="translate(287.013168, 213.117041)"><g><path d="M 3.34375 3.96875 C 5.40625 3.96875 7.171875 2.953125 7.765625 0.453125 C 8.09375 -0.921875 9.1875 -5.875 9.53125 -7.390625 C 9.578125 -7.671875 9.46875 -7.765625 9.171875 -7.765625 C 8.78125 -7.765625 8.625 -7.671875 8.5625 -7.421875 C 8.421875 -6.859375 8.203125 -5.765625 7.90625 -4.5625 C 7.125 -1.640625 5.703125 -0.75 4.234375 -0.75 C 2.953125 -0.75 2.40625 -1.359375 2.40625 -2.5 C 2.40625 -2.78125 2.4375 -3.125 2.515625 -3.484375 C 2.734375 -4.59375 3.203125 -6.140625 3.625 -7.28125 C 3.65625 -7.34375 3.65625 -7.40625 3.65625 -7.453125 C 3.65625 -7.59375 3.5625 -7.671875 3.328125 -7.734375 C 3.265625 -7.75 3.203125 -7.765625 3.140625 -7.765625 C 2.9375 -7.765625 2.765625 -7.65625 2.703125 -7.484375 C 2.1875 -6.203125 1.78125 -4.734375 1.515625 -3.328125 C 1.421875 -2.890625 1.375 -2.5 1.375 -2.140625 C 1.375 -0.703125 2.125 0.15625 3.859375 0.15625 C 5.046875 0.15625 6.328125 -0.359375 7.28125 -1.796875 L 6.828125 0.328125 C 6.390625 2.34375 4.90625 3.0625 3.421875 3.0625 C 2.1875 3.0625 1.53125 2.78125 0.75 2.265625 C 0.6875 2.203125 0.609375 2.1875 0.53125 2.1875 C 0.40625 2.1875 0.265625 2.28125 0.09375 2.5 C 0.015625 2.609375 -0.03125 2.71875 -0.03125 2.796875 C -0.03125 2.90625 0.03125 3 0.15625 3.078125 C 0.9375 3.59375 1.765625 3.96875 3.34375 3.96875 Z M 3.34375 3.96875 "/></g></g></g><g fill="#ff9045" fill-opacity="1"><g transform="translate(297.181872, 213.117041)"><g><path d="M 1.28125 0.15625 C 1.6875 0.15625 1.890625 0.03125 1.921875 -0.359375 C 2.03125 -1.8125 2.1875 -3.15625 2.609375 -5.1875 C 3.15625 -7.921875 3.625 -9.734375 3.984375 -11.140625 C 4 -11.203125 4 -11.25 4 -11.28125 C 4 -11.484375 3.875 -11.5625 3.546875 -11.5625 C 3.25 -11.5625 3.125 -11.453125 3.03125 -11.1875 C 2.65625 -9.859375 2.1875 -8.0625 1.609375 -5.1875 C 1.25 -3.359375 1.0625 -1.84375 0.921875 -0.28125 C 0.90625 -0.21875 0.90625 -0.171875 0.90625 -0.125 C 0.90625 0.078125 1.015625 0.15625 1.28125 0.15625 Z M 1.28125 0.15625 "/></g></g></g><g fill="#ff9045" fill-opacity="1"><g transform="translate(301.170195, 213.117041)"><g><path d="M 3.875 0.15625 C 5.171875 0.15625 6.015625 -0.171875 6.875 -0.640625 C 7.0625 -0.75 7.1875 -0.875 7.1875 -1.046875 C 7.1875 -1.109375 7.171875 -1.171875 7.15625 -1.234375 C 7.09375 -1.421875 7 -1.5 6.890625 -1.5 C 6.828125 -1.5 6.75 -1.46875 6.6875 -1.4375 C 5.859375 -0.96875 5.296875 -0.734375 4.265625 -0.734375 C 2.65625 -0.734375 1.796875 -1.515625 1.796875 -2.9375 C 1.796875 -3.21875 1.828125 -3.5 1.890625 -3.828125 C 2.578125 -3.203125 3.5 -2.8125 4.8125 -2.8125 C 6.6875 -2.8125 7.90625 -3.75 8.203125 -5.1875 C 8.234375 -5.359375 8.25 -5.53125 8.25 -5.71875 C 8.25 -6.90625 7.34375 -7.765625 5.40625 -7.765625 C 2.9375 -7.765625 1.359375 -6.109375 0.90625 -3.828125 C 0.828125 -3.40625 0.78125 -3.03125 0.78125 -2.6875 C 0.78125 -0.90625 1.8125 0.15625 3.875 0.15625 Z M 2.15625 -4.703125 C 2.703125 -6.03125 3.828125 -6.90625 5.28125 -6.90625 C 6.65625 -6.90625 7.234375 -6.296875 7.234375 -5.5 C 7.234375 -4.46875 6.359375 -3.703125 4.796875 -3.703125 C 3.609375 -3.703125 2.796875 -4.09375 2.15625 -4.703125 Z M 2.15625 -4.703125 "/></g></g></g></svg>